<svg xmlns="http://www.w3.org/2000/svg" viewBox="0 0 426 98"><title>adminiqi_new</title><polygon points="386 0 0 0 0 98 386 98 426 48.9 386 0" fill="#de4c66"/><path d="M253.26,356.77a13.94,13.94,0,0,0-.92-2.13,14.38,14.38,0,0,0-2.72-3.52c-0.27-.25-0.55-0.5-0.84-0.74s-0.58-.46-0.89-0.68-0.61-.42-0.93-0.62a15.45,15.45,0,0,0-4.18-1.83,13.22,13.22,0,0,0-3.45-.47l-23,67.22h9l7-21h24l7.22,21h9.32Zm-19,29.23,6.63-19.15c1.3-4.1,2.41-7.85,3.41-11.85h0.2c1,4,2,7.55,3.51,12l6.62,19H234.21Z" transform="translate(-207 -331)" fill="#2e3e50"/><path d="M332.61,371.58c-0.16-.88-0.34-1.74-0.55-2.57-0.15-.55-0.3-1.1-0.47-1.63-0.07-.22-0.14-0.44-0.22-0.66s-0.2-.61-0.32-0.9c-0.17-.48-0.36-1-0.57-1.4a1.64,1.64,0,0,0-.14-0.33c-0.21-.47-0.43-0.94-0.67-1.39-0.14-.27-0.29-0.53-0.44-0.79l0,0a6.61,6.61,0,0,0-.35-0.63c-0.27-.47-0.56-0.93-0.88-1.38a28.19,28.19,0,0,0-4.22-5c-2.59-2.41-5.75-3.84-9.56-5.84h0a5.9,5.9,0,0,1-1.66-.42c-0.06,0-.13,0-0.2,0-0.44-.14-0.89-0.23-1.35-0.36l-0.49-.1a6,6,0,0,0-.61-0.14c-0.34-.09-0.68-0.16-1-0.23-0.55-.12-1.11-0.23-1.68-0.33l-0.24,0c-0.6-.1-1.22-0.2-1.84-0.28q-1.52-.21-3.13-0.33c-0.69,0-1.4-.1-2.13-0.13-1.12,0-2.14-.08-3.33-0.08A120.62,120.62,0,0,0,278,348v66.3c3,0.31,6,.55,9.3.68,2,0.08,4,.12,6.37.12a55.84,55.84,0,0,0,18.42-2.8l0.44-.17,0.22-.08,0.24-.09c0.23-.09.46-0.29,0.69-0.38a3.81,3.81,0,0,1,1.07-.56h0a4.49,4.49,0,0,0,1.89-.81c0.09,0,.18,0,0.27-0.08a29.07,29.07,0,0,0,3.72-2.29l0.08-.06a23.94,23.94,0,0,0,2.8-2.39c0.24-.24.48-0.48,0.7-0.73a30.38,30.38,0,0,0,5.89-8.95c0.22-.51.43-1,0.62-1.55,0-.09.07-0.19,0.11-0.29,0.16-.44.31-0.88,0.46-1.34l0.06-.2c0.13-.39.24-0.78,0.35-1.18l0.18-.66c0.12-.47.24-0.94,0.34-1.43,0.06-.26.11-0.52,0.16-0.78s0.16-.81.23-1.23c0.1-.62.2-1.25,0.27-1.89s0.15-1.28.2-1.94,0.09-1.32.12-2,0-1.35,0-2A43,43,0,0,0,332.61,371.58Zm-37,36.5a50.62,50.62,0,0,1-8.59-.5v-53.2a45.08,45.08,0,0,1,10-.9c18.45,0,27.47,10.1,27.38,26C324.38,397.68,314.25,408.08,295.59,408.08Z" transform="translate(-207 -331)" fill="#2e3e50"/><path d="M403.24,357.92a11.49,11.49,0,0,0-3.72-7.76,11.76,11.76,0,0,0-8.1-3.14l-12,32.44c-3,8.5-5.41,16.54-7.12,22.54H372c-1.7-7-4-14.25-6.82-22.55L353.62,347H342.49l-4.71,67h8.32l1.8-28.55c0.6-10.1,1.1-21.45,1.3-29.45h0.2c1.9,8,4.61,16.55,7.82,26.05L368.15,414h6.62l11.94-32.55c3.41-9.3,6.22-17.45,8.52-25.45h0.3c-0.1,8,.5,19.35,1,28.75l1.7,29.25h8.52Z" transform="translate(-207 -331)" fill="#2e3e50"/><path d="M421.3,349.63a8,8,0,0,0-6.3-2.55V414h9V355.78A8.76,8.76,0,0,0,421.3,349.63Z" transform="translate(-207 -331)" fill="#2e3e50"/><path d="M434.13,414.48v-67.4h9.52l21.66,34.1a190.73,190.73,0,0,1,12.13,21.9l0.2-.1c-0.8-9-1-17.2-1-27.7v-28.2h0a8.21,8.21,0,0,1,8.22,8.2v59.2H476l-21.46-34.2a213.81,213.81,0,0,1-12.63-22.5l-0.3.1c0.5,8.5.7,16.6,0.7,27.8v28.8h-8.22Z" transform="translate(-207 -331)" fill="#ededed"/><path d="M503.81,355.78v58.7h-8.72v-67.4h0A8.71,8.71,0,0,1,503.81,355.78Z" transform="translate(-207 -331)" fill="#ededed"/><path d="M569.78,424.38c-9.12-2.4-18-5.1-25.87-7.8a13,13,0,0,0-4.11-1c-16-.6-29.78-12.4-29.78-34.1S523.26,346,541.5,346s30.28,14.2,30.28,34.1c0,17.3-8,28.4-19.25,32.3v0.4c6.72,1.7,14,3.3,19.75,4.3Zm-7.22-43.9c0-13.5-7-27.4-21.36-27.4-14.74,0-22,13.6-21.86,28.2-0.1,14.3,7.82,27.2,21.46,27.2C554.74,408.48,562.56,395.88,562.56,380.48Z" transform="translate(-207 -331)" fill="#ededed"/><path d="M586.82,355.78v58.7H578.1v-67.4h0A8.71,8.71,0,0,1,586.82,355.78Z" transform="translate(-207 -331)" fill="#ededed"/></svg>