<svg xmlns="http://www.w3.org/2000/svg" width="136" height="96" viewBox="0 0 170 120"><title>icons</title><path d="M132.33,2.5h25.34A12.42,12.42,0,0,1,170,15h0a12.42,12.42,0,0,1-12.33,12.5H132.33A12.42,12.42,0,0,1,120,15h0A12.42,12.42,0,0,1,132.33,2.5Z" fill="#efefef"/><path d="M135,0h0a15,15,0,0,1,15,15h0a15,15,0,0,1-15,15h0a15,15,0,0,1-15-15h0A15,15,0,0,1,135,0Z" fill="#dc94a3"/><path d="M132.33,32.5h25.34A12.42,12.42,0,0,1,170,45h0a12.42,12.42,0,0,1-12.33,12.5H132.33A12.42,12.42,0,0,1,120,45h0A12.42,12.42,0,0,1,132.33,32.5Z" fill="#efefef"/><path d="M155,60h0a15,15,0,0,1-15-15h0a15,15,0,0,1,15-15h0a15,15,0,0,1,15,15h0A15,15,0,0,1,155,60Z" fill="#a6d3c0"/><path d="M105,60h0a15,15,0,0,1,15,15h0a15,15,0,0,1-15,15h0A15,15,0,0,1,90,75h0A15,15,0,0,1,105,60Z" fill="#efefef"/><path d="M105,30h0a15,15,0,0,1,15,15h0a15,15,0,0,1-15,15h0A15,15,0,0,1,90,45h0A15,15,0,0,1,105,30Z" fill="#efefef"/><path d="M105,37.5h0a7.5,7.5,0,0,1,7.5,7.5h0a7.5,7.5,0,0,1-7.5,7.5h0A7.5,7.5,0,0,1,97.5,45h0A7.5,7.5,0,0,1,105,37.5Z" fill="#a6d3c0"/><path d="M105,0h0a15,15,0,0,1,15,15h0a15,15,0,0,1-15,15h0A15,15,0,0,1,90,15h0A15,15,0,0,1,105,0Z" fill="#efefef"/><path d="M105,7.5h0a7.5,7.5,0,0,1,7.5,7.5h0a7.5,7.5,0,0,1-7.5,7.5h0A7.5,7.5,0,0,1,97.5,15h0A7.5,7.5,0,0,1,105,7.5Z" fill="#b3b6bc"/><rect x="60" width="30" height="30" fill="#efefef"/><path d="M73.7,19.77a1.77,1.77,0,0,1-1.11-.39c-1.27-1-1.53-1.26-2.4-2l-1.54-1.4a1.21,1.21,0,0,1,1.62-1.8l1.56,1.41c0.74,0.67,1,.92,1.87,1.61C77,14.34,77.47,13.94,80.61,11a1.21,1.21,0,0,1,1.66,1.77c-3.31,3.12-3.68,3.43-7.43,6.6A1.75,1.75,0,0,1,73.7,19.77Z" fill="#b3b6bc"/><rect x="60" y="30" width="30" height="30" fill="#efefef"/><path d="M73.7,49.77a1.77,1.77,0,0,1-1.11-.39c-1.27-1-1.53-1.26-2.4-2l-1.54-1.4a1.21,1.21,0,0,1,1.62-1.8l1.56,1.41c0.74,0.67,1,.92,1.87,1.61C77,44.34,77.47,43.94,80.61,41a1.21,1.21,0,0,1,1.66,1.77h0c-3.31,3.12-3.68,3.43-7.43,6.6A1.75,1.75,0,0,1,73.7,49.77Z" fill="#a6d3c0"/><rect x="60" y="60" width="30" height="30" fill="#efefef"/><rect x="30" y="30" width="30" height="30" fill="#efefef"/><line x1="38.42" y1="44.77" x2="52.14" y2="44.77" fill="none" stroke="#d792a0" stroke-linecap="round" stroke-miterlimit="10" stroke-width="2"/><rect y="30" width="30" height="30" fill="#efefef"/><line x1="15.85" y1="51.63" x2="15.85" y2="37.91" fill="none" stroke="#a6d3c0" stroke-linecap="round" stroke-miterlimit="10" stroke-width="2"/><line x1="8.99" y1="44.77" x2="22.71" y2="44.77" fill="none" stroke="#a6d3c0" stroke-linecap="round" stroke-miterlimit="10" stroke-width="2"/><rect x="30" width="30" height="30" fill="#efefef"/><line x1="38.42" y1="14.77" x2="52.14" y2="14.77" fill="none" stroke="#b3b6bc" stroke-linecap="round" stroke-miterlimit="10" stroke-width="2"/><rect width="30" height="30" fill="#efefef"/><line x1="15.28" y1="21.63" x2="15.28" y2="7.91" fill="none" stroke="#b3b6bc" stroke-linecap="round" stroke-miterlimit="10" stroke-width="2"/><line x1="8.42" y1="14.77" x2="22.14" y2="14.77" fill="none" stroke="#b3b6bc" stroke-linecap="round" stroke-miterlimit="10" stroke-width="2"/><rect x="30" y="60" width="30" height="30" fill="#efefef"/><line x1="50.28" y1="68.94" x2="40.28" y2="74.71" fill="none" stroke="#b3b6bc" stroke-linecap="round" stroke-miterlimit="10" stroke-width="2"/><line x1="50.28" y1="80.6" x2="40.28" y2="74.83" fill="none" stroke="#b3b6bc" stroke-linecap="round" stroke-miterlimit="10" stroke-width="2"/><rect x="0.5" y="60.5" width="29" height="29" fill="#efefef"/><path d="M29,61V89H1V61H29m1-1H0V90H30V60h0Z" fill="#efefef"/><line x1="10.28" y1="80.6" x2="20.28" y2="74.83" fill="none" stroke="#b3b6bc" stroke-linecap="round" stroke-miterlimit="10" stroke-width="2"/><line x1="10.28" y1="68.94" x2="20.28" y2="74.71" fill="none" stroke="#b3b6bc" stroke-linecap="round" stroke-miterlimit="10" stroke-width="2"/><polyline points="30 120 30 90 60 90 60 120" fill="#efefef"/><line x1="50.28" y1="98.94" x2="40.28" y2="104.71" fill="none" stroke="#80858f" stroke-linecap="round" stroke-miterlimit="10" stroke-width="2"/><line x1="50.28" y1="110.6" x2="40.28" y2="104.83" fill="none" stroke="#80858f" stroke-linecap="round" stroke-miterlimit="10" stroke-width="2"/><polyline points="0 120 0 90 30 90 30 120" fill="#efefef"/><line x1="10.28" y1="110.6" x2="20.28" y2="104.83" fill="none" stroke="#80858f" stroke-linecap="round" stroke-miterlimit="10" stroke-width="2"/><line x1="10.28" y1="98.94" x2="20.28" y2="104.71" fill="none" stroke="#80858f" stroke-linecap="round" stroke-miterlimit="10" stroke-width="2"/><path d="M75,90h0a15,15,0,0,1,15,15h0a15,15,0,0,1-15,15h0a15,15,0,0,1-15-15h0A15,15,0,0,1,75,90Z" fill="#efefef"/><circle cx="75" cy="99.88" r="4.51" fill="#b3b6bc"/><path d="M66.3,114a8.7,8.7,0,0,1,17.39,0H66.3Z" fill="#b3b6bc"/><path d="M132.33,62.5h25.34A12.42,12.42,0,0,1,170,75h0a12.42,12.42,0,0,1-12.33,12.5H132.33A12.42,12.42,0,0,1,120,75h0A12.42,12.42,0,0,1,132.33,62.5Z" fill="#efefef"/><path d="M145,90h0a15,15,0,0,1-15-15h0a15,15,0,0,1,15-15h0a15,15,0,0,1,15,15h0A15,15,0,0,1,145,90Z" fill="#b3b6bc"/></svg>